<svg width="29" height="29" viewBox="0 0 29 29" fill="none" xmlns="http://www.w3.org/2000/svg">
<path d="M14.5001 26.5834C12.8487 26.5834 11.2879 26.2662 9.81779 25.6318C8.34765 24.9974 7.0638 24.1314 5.96623 23.0339C4.86866 21.9363 4.00269 20.6525 3.36831 19.1823C2.73394 17.7122 2.41675 16.1514 2.41675 14.5C2.41675 12.8285 2.73394 11.2627 3.36831 9.80262C4.00269 8.34256 4.86866 7.06374 5.96623 5.96617C7.0638 4.8686 8.34765 4.00262 9.81779 3.36825C11.2879 2.73387 12.8487 2.41669 14.5001 2.41669C16.1716 2.41669 17.7374 2.73387 19.1975 3.36825C20.6575 4.00262 21.9364 4.8686 23.0339 5.96617C24.1315 7.06374 24.9975 8.34256 25.6318 9.80262C26.2662 11.2627 26.5834 12.8285 26.5834 14.5C26.5834 16.1514 26.2662 17.7122 25.6318 19.1823C24.9975 20.6525 24.1315 21.9363 23.0339 23.0339C21.9364 24.1314 20.6575 24.9974 19.1975 25.6318C17.7374 26.2662 16.1716 26.5834 14.5001 26.5834ZM14.5001 24.1063C15.0237 23.3813 15.4768 22.6261 15.8595 21.8406C16.2421 21.0552 16.5542 20.2195 16.7959 19.3334H12.2042C12.4459 20.2195 12.7581 21.0552 13.1407 21.8406C13.5233 22.6261 13.9765 23.3813 14.5001 24.1063ZM11.3584 23.6229C10.9959 22.9584 10.6787 22.2686 10.4069 21.5537C10.135 20.8387 9.90841 20.0986 9.72716 19.3334H6.16258C6.74661 20.3403 7.47664 21.2163 8.35268 21.9615C9.22873 22.7066 10.2306 23.2604 11.3584 23.6229ZM17.6417 23.6229C18.7695 23.2604 19.7714 22.7066 20.6475 21.9615C21.5235 21.2163 22.2536 20.3403 22.8376 19.3334H19.273C19.0917 20.0986 18.8652 20.8387 18.5933 21.5537C18.3214 22.2686 18.0042 22.9584 17.6417 23.6229ZM5.1355 16.9167H9.24383C9.18341 16.5139 9.1381 16.1162 9.10789 15.7235C9.07768 15.3307 9.06258 14.9229 9.06258 14.5C9.06258 14.0771 9.07768 13.6693 9.10789 13.2766C9.1381 12.8839 9.18341 12.4861 9.24383 12.0834H5.1355C5.0348 12.4861 4.95928 12.8839 4.90894 13.2766C4.85859 13.6693 4.83341 14.0771 4.83341 14.5C4.83341 14.9229 4.85859 15.3307 4.90894 15.7235C4.95928 16.1162 5.0348 16.5139 5.1355 16.9167ZM11.6605 16.9167H17.3397C17.4001 16.5139 17.4454 16.1162 17.4756 15.7235C17.5058 15.3307 17.5209 14.9229 17.5209 14.5C17.5209 14.0771 17.5058 13.6693 17.4756 13.2766C17.4454 12.8839 17.4001 12.4861 17.3397 12.0834H11.6605C11.6001 12.4861 11.5548 12.8839 11.5246 13.2766C11.4944 13.6693 11.4792 14.0771 11.4792 14.5C11.4792 14.9229 11.4944 15.3307 11.5246 15.7235C11.5548 16.1162 11.6001 16.5139 11.6605 16.9167ZM19.7563 16.9167H23.8647C23.9654 16.5139 24.0409 16.1162 24.0912 15.7235C24.1416 15.3307 24.1667 14.9229 24.1667 14.5C24.1667 14.0771 24.1416 13.6693 24.0912 13.2766C24.0409 12.8839 23.9654 12.4861 23.8647 12.0834H19.7563C19.8167 12.4861 19.8621 12.8839 19.8923 13.2766C19.9225 13.6693 19.9376 14.0771 19.9376 14.5C19.9376 14.9229 19.9225 15.3307 19.8923 15.7235C19.8621 16.1162 19.8167 16.5139 19.7563 16.9167ZM19.273 9.66669H22.8376C22.2536 8.65974 21.5235 7.7837 20.6475 7.03856C19.7714 6.29342 18.7695 5.7396 17.6417 5.3771C18.0042 6.04169 18.3214 6.73144 18.5933 7.44637C18.8652 8.1613 19.0917 8.90141 19.273 9.66669ZM12.2042 9.66669H16.7959C16.5542 8.78058 16.2421 7.94481 15.8595 7.15939C15.4768 6.37398 15.0237 5.61877 14.5001 4.89377C13.9765 5.61877 13.5233 6.37398 13.1407 7.15939C12.7581 7.94481 12.4459 8.78058 12.2042 9.66669ZM6.16258 9.66669H9.72716C9.90841 8.90141 10.135 8.1613 10.4069 7.44637C10.6787 6.73144 10.9959 6.04169 11.3584 5.3771C10.2306 5.7396 9.22873 6.29342 8.35268 7.03856C7.47664 7.7837 6.74661 8.65974 6.16258 9.66669Z" fill="black"/>
</svg>
